<svg xmlns="http://www.w3.org/2000/svg" xmlns:xlink="http://www.w3.org/1999/xlink" version="1.1" width="512px" height="512px" style="shape-rendering:geometricPrecision; text-rendering:geometricPrecision; image-rendering:optimizeQuality; fill-rule:evenodd; clip-rule:evenodd">
<g><path style="opacity:0.965" fill="#000101" d="M 230.5,103.5 C 227.518,103.963 224.518,104.296 221.5,104.5C 214.649,79.4827 198.649,63.6494 173.5,57C 139.578,52.043 115.078,64.8763 100,95.5C 91.8094,118.984 95.1428,140.651 110,160.5C 121.234,173.534 135.401,180.867 152.5,182.5C 152.296,185.518 151.963,188.518 151.5,191.5C 152.494,197.325 150.161,199.492 144.5,198C 140.465,197.126 136.465,196.126 132.5,195C 124.459,191.646 116.792,187.813 109.5,183.5C 80.5545,157.39 72.3879,125.723 85,88.5C 102.749,52.2 131.916,36.0333 172.5,40C 201.572,45.4156 222.072,61.5823 234,88.5C 235.893,93.0068 237.059,97.6734 237.5,102.5C 235.194,102.993 232.861,103.326 230.5,103.5 Z"/></g>
<g><path style="opacity:0.965" fill="#010102" d="M 401.5,183.5 C 396.105,186.033 390.771,188.867 385.5,192C 379.439,194.864 373.106,196.864 366.5,198C 360.839,199.492 358.506,197.325 359.5,191.5C 359.037,188.518 358.704,185.518 358.5,182.5C 389.824,177.678 408.658,159.678 415,128.5C 417.453,97.5629 404.953,75.0629 377.5,61C 348.306,49.7703 323.14,55.6036 302,78.5C 295.957,86.2538 291.79,94.9204 289.5,104.5C 286.43,104.632 283.43,104.299 280.5,103.5C 278.139,103.326 275.806,102.993 273.5,102.5C 279.432,75.399 295.099,56.2323 320.5,45C 357.543,32.3014 389.043,40.468 415,69.5C 432.727,94.5075 436.394,121.507 426,150.5C 420.25,163.351 412.083,174.351 401.5,183.5 Z"/></g>
<g><path style="opacity:1" fill="#78b6f2" d="M 359.5,191.5 C 353.833,191.5 348.167,191.5 342.5,191.5C 334.337,156.674 313.337,133.674 279.5,122.5C 279.347,116.131 279.68,109.797 280.5,103.5C 283.43,104.299 286.43,104.632 289.5,104.5C 291.79,94.9204 295.957,86.2538 302,78.5C 323.14,55.6036 348.306,49.7703 377.5,61C 404.953,75.0629 417.453,97.5629 415,128.5C 408.658,159.678 389.824,177.678 358.5,182.5C 358.704,185.518 359.037,188.518 359.5,191.5 Z"/></g>
<g><path style="opacity:0.999" fill="#5dbb90" d="M 230.5,103.5 C 231.32,109.797 231.653,116.131 231.5,122.5C 197.606,133.728 176.606,156.728 168.5,191.5C 162.833,191.5 157.167,191.5 151.5,191.5C 151.963,188.518 152.296,185.518 152.5,182.5C 135.401,180.867 121.234,173.534 110,160.5C 95.1428,140.651 91.8094,118.984 100,95.5C 115.078,64.8763 139.578,52.043 173.5,57C 198.649,63.6494 214.649,79.4827 221.5,104.5C 224.518,104.296 227.518,103.963 230.5,103.5 Z"/></g>
<g><path style="opacity:1" fill="#06090c" d="M 348.5,63.5 C 359.167,64.0025 361.833,68.8359 356.5,78C 347.42,81.2149 343.253,78.0482 344,68.5C 345.025,66.313 346.525,64.6464 348.5,63.5 Z"/></g>
<g><path style="opacity:1" fill="#000000" d="M 135.5,79.5 C 151.5,79.5 167.5,79.5 183.5,79.5C 183.5,84.8333 183.5,90.1667 183.5,95.5C 178.167,95.5 172.833,95.5 167.5,95.5C 167.5,103.5 167.5,111.5 167.5,119.5C 162.167,119.5 156.833,119.5 151.5,119.5C 151.5,111.5 151.5,103.5 151.5,95.5C 146.167,95.5 140.833,95.5 135.5,95.5C 135.5,90.1667 135.5,84.8333 135.5,79.5 Z"/></g>
<g><path style="opacity:1" fill="#06090c" d="M 324.5,87.5 C 335.167,88.0025 337.833,92.8359 332.5,102C 323.42,105.215 319.253,102.048 320,92.5C 321.025,90.313 322.525,88.6464 324.5,87.5 Z"/></g>
<g><path style="opacity:1" fill="#06090c" d="M 348.5,87.5 C 359.167,88.0025 361.833,92.8359 356.5,102C 347.42,105.215 343.253,102.048 344,92.5C 345.025,90.313 346.525,88.6464 348.5,87.5 Z"/></g>
<g><path style="opacity:1" fill="#06090c" d="M 372.5,87.5 C 383.167,88.0025 385.833,92.8359 380.5,102C 371.42,105.215 367.253,102.048 368,92.5C 369.025,90.313 370.525,88.6464 372.5,87.5 Z"/></g>
<g><path style="opacity:1" fill="#010202" d="M 119.5,111.5 C 124.875,111.172 130.208,111.505 135.5,112.5C 139.737,122.882 147.57,127.882 159,127.5C 167.695,127.668 175.029,124.668 181,118.5C 181.931,116.541 182.764,114.541 183.5,112.5C 188.792,111.505 194.125,111.172 199.5,111.5C 196.813,129.851 186.146,140.185 167.5,142.5C 167.5,150.833 167.5,159.167 167.5,167.5C 162.167,167.5 156.833,167.5 151.5,167.5C 151.5,159.167 151.5,150.833 151.5,142.5C 138.136,140.911 128.302,134.244 122,122.5C 120.096,119.077 119.263,115.41 119.5,111.5 Z"/></g>
<g><path style="opacity:1" fill="#06090c" d="M 324.5,111.5 C 335.167,112.003 337.833,116.836 332.5,126C 323.42,129.215 319.253,126.048 320,116.5C 321.025,114.313 322.525,112.646 324.5,111.5 Z"/></g>
<g><path style="opacity:1" fill="#06090c" d="M 348.5,111.5 C 359.167,112.003 361.833,116.836 356.5,126C 347.42,129.215 343.253,126.048 344,116.5C 345.025,114.313 346.525,112.646 348.5,111.5 Z"/></g>
<g><path style="opacity:1" fill="#06090c" d="M 372.5,111.5 C 383.167,112.003 385.833,116.836 380.5,126C 371.42,129.215 367.253,126.048 368,116.5C 369.025,114.313 370.525,112.646 372.5,111.5 Z"/></g>
<g><path style="opacity:1" fill="#06090c" d="M 396.5,111.5 C 407.167,112.003 409.833,116.836 404.5,126C 395.42,129.215 391.253,126.048 392,116.5C 393.025,114.313 394.525,112.646 396.5,111.5 Z"/></g>
<g><path style="opacity:0.997" fill="#030302" d="M 279.5,122.5 C 313.337,133.674 334.337,156.674 342.5,191.5C 343.802,202.17 343.802,212.836 342.5,223.5C 334.323,258.338 313.323,281.338 279.5,292.5C 263.506,296.469 247.506,296.469 231.5,292.5C 196.645,280.986 175.645,257.32 168.5,221.5C 167.271,211.49 167.271,201.49 168.5,191.5C 176.606,156.728 197.606,133.728 231.5,122.5C 247.5,118.5 263.5,118.5 279.5,122.5 Z"/></g>
<g><path style="opacity:1" fill="#f5be49" d="M 244.5,135.5 C 275.295,132.984 299.462,144.317 317,169.5C 335.086,205.153 329.586,236.653 300.5,264C 272.477,283.434 243.81,284.434 214.5,267C 185.733,243.769 177.233,214.602 189,179.5C 200.307,155.615 218.807,140.948 244.5,135.5 Z"/></g>
<g><path style="opacity:1" fill="#06090c" d="M 348.5,135.5 C 359.167,136.003 361.833,140.836 356.5,150C 347.42,153.215 343.253,150.048 344,140.5C 345.025,138.313 346.525,136.646 348.5,135.5 Z"/></g>
<g><path style="opacity:1" fill="#06090c" d="M 372.5,135.5 C 383.167,136.003 385.833,140.836 380.5,150C 371.42,153.215 367.253,150.048 368,140.5C 369.025,138.313 370.525,136.646 372.5,135.5 Z"/></g>
<g><path style="opacity:1" fill="#010100" d="M 247.5,151.5 C 252.833,151.5 258.167,151.5 263.5,151.5C 263.5,156.833 263.5,162.167 263.5,167.5C 282.131,170.448 289.631,181.115 286,199.5C 284.753,202.329 283.253,204.995 281.5,207.5C 290.461,220.417 289.128,232.25 277.5,243C 273.221,245.736 268.554,247.236 263.5,247.5C 263.5,252.833 263.5,258.167 263.5,263.5C 258.167,263.5 252.833,263.5 247.5,263.5C 247.5,258.167 247.5,252.833 247.5,247.5C 241.158,247.666 234.825,247.5 228.5,247C 227.069,246.535 225.903,245.701 225,244.5C 223.862,232.067 223.362,219.567 223.5,207C 223.352,194.741 223.852,182.575 225,170.5C 225.903,169.299 227.069,168.465 228.5,168C 234.825,167.5 241.158,167.334 247.5,167.5C 247.5,162.167 247.5,156.833 247.5,151.5 Z"/></g>
<g><path style="opacity:1" fill="#06090c" d="M 348.5,159.5 C 359.167,160.003 361.833,164.836 356.5,174C 347.42,177.215 343.253,174.048 344,164.5C 345.025,162.313 346.525,160.646 348.5,159.5 Z"/></g>
<g><path style="opacity:0.996" fill="#000000" d="M 87.5,183.5 C 87.5,186.167 87.5,188.833 87.5,191.5C 81.1579,191.334 74.8246,191.5 68.5,192C 66.3333,192.833 64.8333,194.333 64,196.5C 63.5,264.166 63.3333,331.833 63.5,399.5C 191.5,399.5 319.5,399.5 447.5,399.5C 447.667,331.833 447.5,264.166 447,196.5C 446.167,194.333 444.667,192.833 442.5,192C 436.175,191.5 429.842,191.334 423.5,191.5C 423.5,188.833 423.5,186.167 423.5,183.5C 423.5,180.833 423.5,178.167 423.5,175.5C 432.25,175.09 440.916,175.59 449.5,177C 456.149,180.314 460.649,185.481 463,192.5C 463.5,261.499 463.667,330.499 463.5,399.5C 472.839,399.334 482.173,399.5 491.5,400C 493.333,400.5 494.5,401.667 495,403.5C 495.667,415.167 495.667,426.833 495,438.5C 492.167,446.667 486.667,452.167 478.5,455C 329.833,455.667 181.167,455.667 32.5,455C 24.3333,452.167 18.8333,446.667 16,438.5C 15.3333,426.833 15.3333,415.167 16,403.5C 16.5,401.667 17.6667,400.5 19.5,400C 28.8274,399.5 38.1607,399.334 47.5,399.5C 47.3333,330.499 47.5,261.499 48,192.5C 50.3513,185.481 54.8513,180.314 61.5,177C 70.0836,175.59 78.7502,175.09 87.5,175.5C 87.5,178.167 87.5,180.833 87.5,183.5 Z"/></g>
<g><path style="opacity:1" fill="#5670e4" d="M 87.5,183.5 C 94.8333,183.5 102.167,183.5 109.5,183.5C 116.792,187.813 124.459,191.646 132.5,195C 136.465,196.126 140.465,197.126 144.5,198C 150.161,199.492 152.494,197.325 151.5,191.5C 157.167,191.5 162.833,191.5 168.5,191.5C 167.271,201.49 167.271,211.49 168.5,221.5C 163.265,223.45 157.598,224.117 151.5,223.5C 151.007,221.194 150.674,218.861 150.5,216.5C 111.635,222.529 88.1352,244.862 80,283.5C 77.1917,325.077 94.6917,354.244 132.5,371C 168.421,381.316 198.588,372.483 223,344.5C 229.845,335.31 234.678,325.143 237.5,314C 235.073,313.098 232.74,312.264 230.5,311.5C 231.014,305.178 231.347,298.845 231.5,292.5C 247.506,296.469 263.506,296.469 279.5,292.5C 279.476,298.857 279.81,305.19 280.5,311.5C 278.26,312.264 275.927,313.098 273.5,314C 287.262,356.564 316.595,376.897 361.5,375C 400.667,367.833 423.833,344.667 431,305.5C 433.219,265.748 416.386,237.581 380.5,221C 374.037,218.551 367.37,217.051 360.5,216.5C 360.326,218.861 359.993,221.194 359.5,223.5C 353.833,223.5 348.167,223.5 342.5,223.5C 343.802,212.836 343.802,202.17 342.5,191.5C 348.167,191.5 353.833,191.5 359.5,191.5C 358.506,197.325 360.839,199.492 366.5,198C 373.106,196.864 379.439,194.864 385.5,192C 390.771,188.867 396.105,186.033 401.5,183.5C 408.833,183.5 416.167,183.5 423.5,183.5C 423.5,186.167 423.5,188.833 423.5,191.5C 429.842,191.334 436.175,191.5 442.5,192C 444.667,192.833 446.167,194.333 447,196.5C 447.5,264.166 447.667,331.833 447.5,399.5C 319.5,399.5 191.5,399.5 63.5,399.5C 63.3333,331.833 63.5,264.166 64,196.5C 64.8333,194.333 66.3333,192.833 68.5,192C 74.8246,191.5 81.1579,191.334 87.5,191.5C 87.5,188.833 87.5,186.167 87.5,183.5 Z"/></g>
<g><path style="opacity:1" fill="#f4be49" d="M 239.5,183.5 C 248.506,183.334 257.506,183.5 266.5,184C 271.535,187.013 272.702,191.18 270,196.5C 269.097,197.701 267.931,198.535 266.5,199C 257.506,199.5 248.506,199.666 239.5,199.5C 239.5,194.167 239.5,188.833 239.5,183.5 Z"/></g>
<g><path style="opacity:1" fill="#f4be49" d="M 239.5,215.5 C 248.506,215.334 257.506,215.5 266.5,216C 271.535,219.013 272.702,223.18 270,228.5C 269.097,229.701 267.931,230.535 266.5,231C 257.506,231.5 248.506,231.666 239.5,231.5C 239.5,226.167 239.5,220.833 239.5,215.5 Z"/></g>
<g><path style="opacity:1" fill="#020204" d="M 151.5,223.5 C 152.159,226.455 152.492,229.455 152.5,232.5C 121.647,237.182 102.813,254.849 96,285.5C 93.8419,324.661 111.675,349.161 149.5,359C 185.701,361.414 209.701,345.58 221.5,311.5C 224.446,310.679 227.446,310.679 230.5,311.5C 232.74,312.264 235.073,313.098 237.5,314C 234.678,325.143 229.845,335.31 223,344.5C 198.588,372.483 168.421,381.316 132.5,371C 94.6917,354.244 77.1917,325.077 80,283.5C 88.1352,244.862 111.635,222.529 150.5,216.5C 150.674,218.861 151.007,221.194 151.5,223.5 Z"/></g>
<g><path style="opacity:1" fill="#020204" d="M 280.5,311.5 C 283.502,310.357 286.502,310.357 289.5,311.5C 300.226,344.368 322.893,360.201 357.5,359C 389.747,354.087 408.914,335.587 415,303.5C 417.206,270.397 403.04,247.564 372.5,235C 367.997,233.22 363.33,232.387 358.5,232.5C 358.508,229.455 358.841,226.455 359.5,223.5C 359.993,221.194 360.326,218.861 360.5,216.5C 367.37,217.051 374.037,218.551 380.5,221C 416.386,237.581 433.219,265.748 431,305.5C 423.833,344.667 400.667,367.833 361.5,375C 316.595,376.897 287.262,356.564 273.5,314C 275.927,313.098 278.26,312.264 280.5,311.5 Z"/></g>
<g><path style="opacity:1" fill="#8594c1" d="M 168.5,221.5 C 175.645,257.32 196.645,280.986 231.5,292.5C 231.347,298.845 231.014,305.178 230.5,311.5C 227.446,310.679 224.446,310.679 221.5,311.5C 209.701,345.58 185.701,361.414 149.5,359C 111.675,349.161 93.8419,324.661 96,285.5C 102.813,254.849 121.647,237.182 152.5,232.5C 152.492,229.455 152.159,226.455 151.5,223.5C 157.598,224.117 163.265,223.45 168.5,221.5 Z"/></g>
<g><path style="opacity:1" fill="#c7d5ea" d="M 342.5,223.5 C 348.167,223.5 353.833,223.5 359.5,223.5C 358.841,226.455 358.508,229.455 358.5,232.5C 363.33,232.387 367.997,233.22 372.5,235C 403.04,247.564 417.206,270.397 415,303.5C 408.914,335.587 389.747,354.087 357.5,359C 322.893,360.201 300.226,344.368 289.5,311.5C 286.502,310.357 283.502,310.357 280.5,311.5C 279.81,305.19 279.476,298.857 279.5,292.5C 313.323,281.338 334.323,258.338 342.5,223.5 Z"/></g>
<g><path style="opacity:1" fill="#030304" d="M 348.5,239.5 C 352.192,238.971 355.358,239.971 358,242.5C 369.574,262.486 380.741,282.653 391.5,303C 391.204,304.888 390.704,306.722 390,308.5C 378.833,319.667 367.667,330.833 356.5,342C 353.134,343.879 349.8,343.879 346.5,342C 335.333,330.833 324.167,319.667 313,308.5C 311,305.167 311,301.833 313,298.5C 323.667,279.833 334.333,261.167 345,242.5C 346.145,241.364 347.312,240.364 348.5,239.5 Z"/></g>
<g><path style="opacity:1" fill="#040406" d="M 152.5,242.5 C 157.085,245.414 161.085,249.08 164.5,253.5C 158.848,259.652 153.015,265.652 147,271.5C 143.167,267.667 139.333,263.833 135.5,260C 141.37,254.298 147.036,248.465 152.5,242.5 Z"/></g>
<g><path style="opacity:1" fill="#536396" d="M 350.5,264.5 C 352.074,264.937 353.241,265.937 354,267.5C 357.914,274.996 362.08,282.329 366.5,289.5C 365.667,289.833 364.833,290.167 364,290.5C 359.788,289.572 355.622,288.572 351.5,287.5C 347.378,288.572 343.212,289.572 339,290.5C 338.167,290.167 337.333,289.833 336.5,289.5C 341.444,281.274 346.111,272.94 350.5,264.5 Z"/></g>
<g><path style="opacity:1" fill="#040406" d="M 123.5,271.5 C 127.631,275.13 131.631,278.963 135.5,283C 131.318,287.015 127.318,291.182 123.5,295.5C 127.318,299.818 131.318,303.985 135.5,308C 131.667,311.833 127.833,315.667 124,319.5C 117.667,313.167 111.333,306.833 105,300.5C 103.121,297.134 103.121,293.8 105,290.5C 111.369,284.298 117.536,277.965 123.5,271.5 Z"/></g>
<g><path style="opacity:1" fill="#020203" d="M 157.5,281.5 C 158.873,281.343 160.207,281.51 161.5,282C 166.088,286.081 170.088,290.581 173.5,295.5C 169.833,301.167 165.167,305.833 159.5,309.5C 153.833,305.833 149.167,301.167 145.5,295.5C 148.427,289.907 152.427,285.24 157.5,281.5 Z"/></g>
<g><path style="opacity:1" fill="#040406" d="M 200.5,290.5 C 205.085,293.414 209.085,297.08 212.5,301.5C 206.848,307.652 201.015,313.652 195,319.5C 191.167,315.667 187.333,311.833 183.5,308C 189.37,302.298 195.036,296.465 200.5,290.5 Z"/></g>
<g><path style="opacity:1" fill="#6a7baf" d="M 349.5,303.5 C 355.463,304.991 361.463,306.491 367.5,308C 362.319,313.348 356.985,318.515 351.5,323.5C 346.015,318.515 340.681,313.348 335.5,308C 340.274,306.481 344.941,304.981 349.5,303.5 Z"/></g>
<g><path style="opacity:1" fill="#040406" d="M 146.5,319.5 C 150.813,323.478 155.146,327.478 159.5,331.5C 163.818,327.682 167.985,323.682 172,319.5C 175.833,323.333 179.667,327.167 183.5,331C 177.167,337.333 170.833,343.667 164.5,350C 161.923,351.25 159.257,351.584 156.5,351C 149.197,344.698 142.197,338.032 135.5,331C 139.37,327.298 143.037,323.464 146.5,319.5 Z"/></g>
<g><path style="opacity:1" fill="#e3e8f1" d="M 31.5,415.5 C 91.8343,415.333 152.168,415.5 212.5,416C 214.871,418.706 217.537,421.039 220.5,423C 243.5,423.667 266.5,423.667 289.5,423C 293.05,421.459 296.05,419.126 298.5,416C 358.832,415.5 419.166,415.333 479.5,415.5C 479.666,421.842 479.5,428.175 479,434.5C 478.065,437.102 476.232,438.602 473.5,439C 327.833,439.667 182.167,439.667 36.5,439C 34.3333,438.167 32.8333,436.667 32,434.5C 31.5005,428.175 31.3338,421.842 31.5,415.5 Z"/></g>
</svg>