<svg xmlns="http://www.w3.org/2000/svg" xmlns:xlink="http://www.w3.org/1999/xlink" version="1.1" width="512px" height="512px" style="shape-rendering:geometricPrecision; text-rendering:geometricPrecision; image-rendering:optimizeQuality; fill-rule:evenodd; clip-rule:evenodd">
<g><path style="opacity:0.994" fill="#efb914" d="M 226.5,-0.5 C 245.833,-0.5 265.167,-0.5 284.5,-0.5C 371.354,12.3014 436.854,56.3014 481,131.5C 496.697,161.423 506.864,193.09 511.5,226.5C 511.5,245.833 511.5,265.167 511.5,284.5C 498.69,371.377 454.69,436.877 379.5,481C 349.577,496.697 317.91,506.864 284.5,511.5C 265.167,511.5 245.833,511.5 226.5,511.5C 139.646,498.699 74.1462,454.699 30,379.5C 18.8991,358.617 10.5658,336.617 5,313.5C 3.46022,303.641 1.62688,293.974 -0.5,284.5C -0.5,265.167 -0.5,245.833 -0.5,226.5C 12.3014,139.646 56.3014,74.1462 131.5,30C 152.383,18.8991 174.383,10.5658 197.5,5C 207.359,3.46022 217.026,1.62688 226.5,-0.5 Z"/></g>
<g><path style="opacity:1" fill="#fefefd" d="M 346.5,104.5 C 347.11,105.391 347.443,106.391 347.5,107.5C 343.738,123.716 339.738,139.882 335.5,156C 341.6,162.1 347.767,168.267 354,174.5C 369.433,192.707 378.933,213.707 382.5,237.5C 382.5,239.167 382.5,240.833 382.5,242.5C 381.5,242.5 380.5,242.5 379.5,242.5C 365.809,239.528 352.143,236.361 338.5,233C 321.183,188.327 288.516,167.994 240.5,172C 193.032,184.125 169.865,214.625 171,263.5C 176.912,302.75 199.078,327.583 237.5,338C 267.693,343.206 294.026,335.539 316.5,315C 320.17,315.159 323.837,315.659 327.5,316.5C 329.515,317.924 331.848,318.59 334.5,318.5C 343.847,320.936 353.18,323.436 362.5,326C 342.146,354.766 314.646,372.599 280,379.5C 274.889,396.612 270.722,413.945 267.5,431.5C 253.066,428.736 239.066,424.903 225.5,420C 229.072,406.544 232.406,393.044 235.5,379.5C 228.34,378.918 221.34,377.585 214.5,375.5C 211.421,388.557 208.088,401.557 204.5,414.5C 203.833,414.833 203.167,415.167 202.5,415.5C 189.833,412.333 177.167,409.167 164.5,406C 163.941,405.275 163.608,404.442 163.5,403.5C 164.84,398.482 166.174,393.482 167.5,388.5C 168.924,386.485 169.59,384.152 169.5,381.5C 170.293,377.12 171.293,372.787 172.5,368.5C 173.924,366.485 174.59,364.152 174.5,361.5C 175.321,358.446 175.321,355.446 174.5,352.5C 140.26,322.67 124.76,285.004 128,239.5C 139.125,180.708 173.792,144.375 232,130.5C 235.689,113.519 239.856,96.6852 244.5,80C 258.054,83.2308 271.721,86.3974 285.5,89.5C 282.612,102.671 279.612,115.838 276.5,129C 276.755,130.326 277.422,131.326 278.5,132C 284.879,133.173 291.212,134.34 297.5,135.5C 300.183,122.101 303.183,108.768 306.5,95.5C 319.839,98.5027 333.173,101.503 346.5,104.5 Z"/></g>
<g><path style="opacity:1" fill="#f8dd91" d="M 346.5,104.5 C 348.552,105.053 348.885,106.053 347.5,107.5C 347.443,106.391 347.11,105.391 346.5,104.5 Z"/></g>
<g><path style="opacity:1" fill="#f9e6ac" d="M 382.5,237.5 C 383.461,239.265 383.795,241.265 383.5,243.5C 381.901,243.768 380.568,243.434 379.5,242.5C 380.5,242.5 381.5,242.5 382.5,242.5C 382.5,240.833 382.5,239.167 382.5,237.5 Z"/></g>
<g><path style="opacity:1" fill="#f6d679" d="M 327.5,316.5 C 330.152,316.41 332.485,317.076 334.5,318.5C 331.848,318.59 329.515,317.924 327.5,316.5 Z"/></g>
<g><path style="opacity:1" fill="#fae8b3" d="M 174.5,361.5 C 174.59,364.152 173.924,366.485 172.5,368.5C 172.41,365.848 173.076,363.515 174.5,361.5 Z"/></g>
<g><path style="opacity:1" fill="#fae8b3" d="M 169.5,381.5 C 169.59,384.152 168.924,386.485 167.5,388.5C 167.41,385.848 168.076,383.515 169.5,381.5 Z"/></g>
</svg>


